<svg width="177" height="38" viewBox="0 0 177 38" fill="none" xmlns="http://www.w3.org/2000/svg">
<g clip-path="url(#clip0_507:4267)">
<path d="M0.457282 36.8957C0.192073 37.4147 0.593676 37.993 1.19229 37.993C18.1202 38.0226 30.7517 22.0075 21.477 3.76071L20.0979 1.05446C19.81 0.490963 18.9992 0.490963 18.7113 1.05446L0.457282 36.8957Z" fill="#65BD7D"/>
<path d="M29.949 20.406C29.661 19.8425 28.8427 19.8425 28.5624 20.406L24.3645 28.4284C22.1064 32.8474 24.9479 38.0078 30.3885 38.0078H37.7916C38.3675 38.0078 38.7464 37.4146 38.4887 36.9104L29.949 20.406Z" fill="#65BD7D"/>
<path d="M78.2382 29.1703L77.9693 29.0492C77.8543 29.1299 77.5474 29.3319 77.1254 29.3319C76.3203 29.3319 75.9745 28.7665 75.3225 27.1915L66.8067 6.5957H63.6228L52.8818 32.8453H57.3316L59.4031 27.5146H70.9112L71.103 28.0396C71.8702 30.1395 72.6374 31.553 73.5964 32.3606C74.3252 32.9664 75.2075 33.3299 76.3203 33.3299C77.3173 33.3299 78.1993 33.0472 78.8132 32.6434L78.9671 32.3203L78.2382 29.1703ZM60.7457 24.1223L65.1571 12.7341L69.5686 24.1223H60.7457Z" fill="white"/>
<path d="M77.9744 12.1685C76.9385 12.1685 76.1715 12.4512 75.7115 12.7743L75.5576 13.0973L76.2104 16.1665L76.4785 16.2877C76.7473 16.0453 77.1305 15.9646 77.4374 16.0049C78.0513 16.0453 78.5502 16.6915 79.2022 18.3472L84.9558 32.8451H88.1015L96.0037 12.9358L95.8506 12.6531H92.0911L86.5286 27.3528L82.616 16.6107C81.6189 13.7031 80.3142 12.1685 77.9744 12.1685Z" fill="white"/>
<path d="M116.366 29.372L116.098 29.2508C115.944 29.372 115.753 29.4932 115.484 29.4932C114.794 29.4932 114.602 28.8067 114.602 27.7163V19.9222C114.602 14.1069 109.884 12.1685 105.741 12.1685C102.442 12.1685 99.7948 13.4203 97.7238 15.5204V15.8434L99.8336 17.9434H100.141C101.483 16.5703 103.17 15.6011 105.357 15.6011C108.004 15.6011 110.498 17.0146 110.498 19.9222V21.0529C109.117 20.5279 107.505 20.1241 105.434 20.1241C100.716 20.1241 96.8799 22.1836 96.8799 26.6663C96.8799 31.0278 100.524 33.3296 104.475 33.3296C107.007 33.3296 109.385 32.3604 111.035 30.7047C111.534 32.3604 112.799 33.3296 114.525 33.3296C115.484 33.3296 116.29 33.047 116.827 32.6432L116.98 32.3604L116.366 29.372ZM110.498 25.5355C110.498 28.3625 107.966 30.0989 105.319 30.0989C103.132 30.0989 101.061 28.9682 101.061 26.6663C101.061 24.4856 102.94 23.1125 105.971 23.1125C107.851 23.1125 109.5 23.6375 110.498 24.0413V25.5355Z" fill="white"/>
<path d="M140.195 29.372L139.927 29.2509C139.773 29.372 139.581 29.4932 139.313 29.4932C138.622 29.4932 138.431 28.8067 138.431 27.7163V5.50514L138.162 5.30322L134.288 5.90898V14.6319C132.639 13.1377 130.49 12.1685 127.958 12.1685C122.32 12.1685 118.33 16.8127 118.33 22.7491C118.33 28.6451 122.281 33.3297 127.997 33.3297C130.836 33.3297 133.137 32.1989 134.787 30.422C135.247 32.2393 136.513 33.3297 138.354 33.3297C139.313 33.3297 140.119 33.047 140.656 32.6432L140.809 32.3604L140.195 29.372ZM128.649 29.4932C124.928 29.4932 122.588 26.4644 122.588 22.7491C122.588 19.0338 124.928 16.0049 128.649 16.0049C131.91 16.0049 134.633 18.3069 134.633 22.7491C134.633 27.1509 131.948 29.4932 128.649 29.4932Z" fill="white"/>
<path d="M161.877 29.372L161.608 29.2508C161.455 29.372 161.263 29.4932 160.995 29.4932C160.304 29.4932 160.112 28.8067 160.112 27.7163V19.9222C160.112 14.1069 155.394 12.1685 151.251 12.1685C147.952 12.1685 145.305 13.4203 143.234 15.5204V15.8434L145.343 17.9434H145.65C146.993 16.5703 148.681 15.6011 150.868 15.6011C153.515 15.6011 156.007 17.0146 156.007 19.9222V21.0529C154.627 20.5279 153.016 20.1241 150.944 20.1241C146.226 20.1241 142.39 22.1836 142.39 26.6663C142.39 31.0278 146.034 33.3296 149.985 33.3296C152.517 33.3296 154.895 32.3604 156.544 30.7047C157.043 32.3604 158.309 33.3296 160.036 33.3296C160.995 33.3296 161.8 33.047 162.337 32.6432L162.491 32.3604L161.877 29.372ZM156.007 25.5355C156.007 28.3625 153.476 30.0989 150.829 30.0989C148.643 30.0989 146.571 28.9682 146.571 26.6663C146.571 24.4856 148.451 23.1125 151.481 23.1125C153.361 23.1125 155.01 23.6375 156.007 24.0413V25.5355Z" fill="white"/>
<path d="M173.419 33.3299C175.397 33.3299 177 31.7614 177 29.8266C177 27.8917 175.397 26.3232 173.419 26.3232C171.442 26.3232 169.839 27.8917 169.839 29.8266C169.839 31.7614 171.442 33.3299 173.419 33.3299Z" fill="#65BD7D"/>
<path d="M173.419 19.3162C175.397 19.3162 177 17.7477 177 15.8129C177 13.8781 175.397 12.3096 173.419 12.3096C171.442 12.3096 169.839 13.8781 169.839 15.8129C169.839 17.7477 171.442 19.3162 173.419 19.3162Z" fill="#65BD7D"/>
</g>
<defs>
<clipPath id="clip0_507:4267">
<rect width="177" height="38" fill="white"/>
</clipPath>
</defs>
</svg>
