<svg width="1902" height="425" viewBox="0 0 1902 425" fill="none" xmlns="http://www.w3.org/2000/svg">
<g clip-path="url(#clip0)">
<rect width="1902" height="425" fill="white"/>
<path d="M202.51 62.4182C202.537 71.9297 200.621 80.8372 196.759 89.1406C192.897 97.2001 187.332 103.923 180.062 109.31C170.855 116.409 160.788 120.219 149.862 120.739C139.178 121.014 128.123 119.217 116.699 115.348C105.274 111.479 93.6021 106.147 81.6832 99.3531C69.7643 92.559 57.8446 85.521 45.9243 78.2391C32.3013 69.9866 19.5307 62.5853 7.61245 56.035C-4.30648 49.2409 -15.2491 44.1512 -25.2154 40.7658C-35.1824 37.1365 -44.2937 35.4558 -52.5495 35.7238C-61.0488 35.7485 -68.5693 38.3312 -75.111 43.4719C-76.8066 44.9401 -78.9857 47.1415 -81.6484 50.0759C-84.5546 52.7671 -86.6081 56.4314 -87.8088 61.0687C-89.2531 65.4629 -89.3581 71.0726 -88.1241 77.8978C-87.1328 84.7238 -83.5879 92.8836 -77.4892 102.377C-77.2457 102.621 -76.88 103.107 -76.3922 103.838C-76.148 104.325 -75.9041 104.69 -75.6605 104.933C-64.2507 103.68 -52.7167 103.403 -41.0583 104.101C-29.4007 104.554 -18.3481 105.742 -7.90036 107.662C-3.04148 108.38 4.24825 109.944 13.9688 112.354C23.4466 114.766 33.2918 118.273 43.5045 122.877C53.4743 127.482 62.8409 133.43 71.6044 140.721C80.3671 147.768 86.3419 156.409 89.5286 166.643C90.9998 171.516 91.5057 178.466 91.0463 187.491C90.3434 196.273 85.1494 205.556 75.4643 215.339C70.8639 219.987 63.7112 223.788 54.0062 226.743C44.3005 229.454 31.062 228.151 14.2906 222.834C6.02701 220.419 -2.72545 216.909 -11.9668 212.302C-21.2088 207.451 -30.4526 201.99 -39.6982 195.92C-49.1873 189.607 -58.4357 182.561 -67.4434 174.783C-76.694 167.005 -85.0956 158.859 -92.6484 150.345C-100.17 152.562 -107.082 155.509 -113.385 159.186C-119.689 162.618 -124.898 167.024 -129.01 172.401L-161.502 147.253C-155.938 139.921 -149.4 133.682 -141.887 128.539C-134.375 123.152 -126.374 118.738 -117.884 115.299C-120.571 110.185 -122.892 105.07 -124.85 99.9546C-126.808 94.5948 -128.281 89.2336 -129.268 83.8709C-131.738 69.7327 -130.562 56.4374 -125.742 43.9851C-120.922 31.289 -112.576 20.2898 -100.704 10.9875C-88.1053 0.951454 -74.6434 -4.45325 -60.3182 -5.22663C-45.9936 -6.24388 -31.5395 -4.45682 -16.9557 0.134555C-2.61554 4.48276 11.8518 10.7817 26.4461 19.0313C40.797 27.0378 54.4193 35.0464 67.3131 43.0571C75.8274 48.1539 84.5848 53.372 93.5854 58.7113C102.342 63.8074 110.612 68.1733 118.393 71.809C126.417 75.2 133.587 77.496 139.905 78.6971C146.465 79.8974 151.562 79.029 155.196 76.0917C157.619 74.3775 159.312 71.9337 160.274 68.7603C161.479 65.5863 161.711 61.8054 160.97 57.4176C160.227 52.542 158.269 47.3041 155.096 41.704C151.922 35.8599 147.534 30.2633 141.933 24.9141C136.575 19.3203 129.881 14.0963 121.854 9.24189C114.069 4.38683 105.071 0.266959 94.8624 -3.11773L107.861 -42.6653C132.897 -34.446 153.94 -21.7032 170.989 -4.43692C188.037 12.5855 198.168 30.9695 201.383 50.7149C201.631 52.6653 201.88 54.7376 202.129 56.9319C202.378 58.8822 202.505 60.711 202.51 62.4182ZM-38.3881 145.432C-29.8682 152.479 -20.9862 158.795 -11.7421 164.377C-2.74075 169.96 5.65065 174.57 13.4321 178.205C21.2128 181.597 28.1408 184.016 34.216 185.461C40.2905 186.663 44.5401 186.651 46.965 185.424C47.2071 185.18 47.9331 184.324 49.143 182.857C50.1101 181.391 50.4708 180.171 50.2252 179.196C48.9996 175.297 42.792 170.072 31.6023 163.519C20.4126 156.967 4.85608 151.891 -15.0672 148.29C-18.9548 147.57 -22.8419 146.972 -26.7287 146.495C-30.6156 146.019 -34.502 145.664 -38.3881 145.432Z" fill="#7ED5F0"/>
</g>
<defs>
<clipPath id="clip0">
<rect width="1902" height="425" fill="white"/>
</clipPath>
</defs>
</svg>
